<svg width="128" height="128" viewBox="0 0 128 128" fill="none" xmlns="http://www.w3.org/2000/svg">
<path d="M128 64C128 99.3462 99.3462 128 64 128C28.6538 128 0 99.3462 0 64C0 28.6538 28.6538 0 64 0C99.3462 0 128 28.6538 128 64Z" fill="#302F58"/>
<path d="M72.2978 23.4806H98.1009V26.5657H72.2978V23.4806ZM71.1376 34.4856H98.9362V37.5706H71.1376V34.4856ZM76.6602 48.8518H93.5993V51.6146H76.6602V48.8518ZM76.753 56.3573H93.7849V59.3042H76.753V56.3573ZM83.2502 19.2905H86.6844V25.0462H83.2502V19.2905ZM76.2889 27.4866L79.3055 26.888C79.8314 27.9317 80.3265 29.0982 80.7906 30.3875C81.2546 31.6461 81.564 32.7358 81.7187 33.6567L78.563 34.3474C78.4083 33.4265 78.1143 32.3214 77.6812 31.0321C77.2481 29.7428 76.784 28.561 76.2889 27.4866ZM90.8148 26.7959L94.249 27.5326C93.7849 28.7298 93.2899 29.9577 92.7639 31.2163C92.2689 32.4749 91.7893 33.5339 91.3253 34.3935L88.4479 33.7488C88.7264 33.1042 89.0048 32.3828 89.2833 31.5847C89.5927 30.7559 89.8866 29.927 90.165 29.0982C90.4435 28.2387 90.6601 27.4713 90.8148 26.7959ZM74.8039 41.3924H95.7805V61.1921H92.4391V44.2933H78.0525V61.2842H74.8039V41.3924ZM59.1642 21.9151H70.2558V52.2132H59.1642V49.082H67.0537V25.0922H59.1642V21.9151ZM59.3499 35.3604H68.8636V38.4915H59.3499V35.3604ZM57.54 21.9151H60.7421V55.9889H57.54V21.9151Z" fill="white"/>
<path d="M78.4237 92.2771H94.481V95.5464H78.4237V92.2771ZM76.8922 92.2771H80.3729V111.018C80.3729 111.939 80.574 112.537 80.9762 112.814C81.3784 113.09 82.2137 113.228 83.4822 113.228C83.7607 113.228 84.3021 113.228 85.1065 113.228C85.9109 113.228 86.7772 113.228 87.7054 113.228C88.6645 113.228 89.5617 113.228 90.3971 113.228C91.2634 113.228 91.8976 113.228 92.2998 113.228C93.1352 113.228 93.754 113.044 94.1562 112.675C94.5893 112.276 94.8832 111.54 95.0379 110.465C95.2236 109.36 95.3628 107.733 95.4556 105.584C95.7341 105.769 96.0589 105.968 96.4302 106.183C96.8324 106.367 97.2346 106.536 97.6368 106.689C98.039 106.843 98.4103 106.95 98.7506 107.012C98.5959 109.468 98.3175 111.386 97.9152 112.767C97.544 114.149 96.9407 115.116 96.1053 115.668C95.27 116.252 94.0634 116.543 92.4855 116.543C92.2689 116.543 91.8357 116.543 91.186 116.543C90.5673 116.543 89.8402 116.543 89.0048 116.543C88.2004 116.543 87.396 116.543 86.5916 116.543C85.7872 116.543 85.0601 116.543 84.4104 116.543C83.7916 116.543 83.3894 116.543 83.2038 116.543C81.595 116.543 80.3265 116.39 79.3983 116.083C78.4701 115.776 77.8204 115.223 77.4491 114.425C77.0779 113.627 76.8922 112.491 76.8922 111.018V92.2771ZM76.3818 77.2202H96.2445V98.0789H92.7639V80.5355H76.3818V77.2202ZM58.004 88.5935H72.4835V91.3102H58.004V88.5935ZM58.2361 76.2532H72.6691V79.016H58.2361V76.2532ZM58.004 94.7175H72.4835V97.4803H58.004V94.7175ZM55.7764 82.2852H74.247V85.1861H55.7764V82.2852ZM59.6283 100.934H72.3442V114.379H59.6283V111.524H69.2349V103.835H59.6283V100.934ZM57.9112 100.934H61.0206V116.497H57.9112V100.934Z" fill="white"/>
<path d="M39.7563 11.3128C39.6843 11.4736 39.6213 11.67 39.5672 11.9022C39.5312 12.1165 39.4862 12.3219 39.4322 12.5184C39.2882 13.2507 39.1442 14.1794 39.0002 15.3046C38.8562 16.4298 38.7392 17.6353 38.6492 18.9213C38.5592 20.1893 38.5142 21.4395 38.5142 22.6719C38.5142 23.8149 38.5862 24.9312 38.7302 26.0207C38.8922 27.1101 39.0902 28.155 39.3242 29.1551C39.5762 30.1374 39.8373 31.0483 40.1073 31.8877L38.1632 32.4771C37.8932 31.6734 37.6412 30.7447 37.4071 29.6909C37.1731 28.6193 36.9841 27.5031 36.8401 26.3422C36.6961 25.1634 36.6241 24.0114 36.6241 22.8862C36.6241 21.9575 36.6511 21.0109 36.7051 20.0465C36.7771 19.082 36.8581 18.1443 36.9481 17.2335C37.0381 16.3048 37.1191 15.4385 37.1911 14.6348C37.2811 13.8311 37.3621 13.1346 37.4342 12.5452C37.4522 12.313 37.4702 12.0808 37.4882 11.8486C37.5062 11.6165 37.5062 11.42 37.4882 11.2593L39.7563 11.3128ZM35.3821 14.6348C36.9661 14.6348 38.5322 14.5902 40.0803 14.5009C41.6283 14.4116 43.1134 14.2776 44.5355 14.099C45.9755 13.9204 47.3256 13.6882 48.5857 13.4025L48.6127 15.385C47.6406 15.5457 46.5876 15.6975 45.4535 15.8404C44.3375 15.9654 43.1944 16.0815 42.0244 16.1887C40.8543 16.278 39.7023 16.3494 38.5682 16.403C37.4341 16.4566 36.3631 16.4834 35.3551 16.4834C34.977 16.4834 34.518 16.4744 33.978 16.4566C33.438 16.4208 32.8979 16.3941 32.3579 16.3762C31.8179 16.3405 31.3589 16.3137 30.9809 16.2958L30.9269 14.2866C31.2509 14.3401 31.6919 14.3937 32.2499 14.4473C32.8079 14.5009 33.375 14.5455 33.951 14.5812C34.527 14.617 35.004 14.6348 35.3821 14.6348ZM46.6416 17.7693C46.5876 17.8764 46.5246 18.0283 46.4526 18.2247C46.3986 18.4033 46.3356 18.5909 46.2636 18.7873C46.2096 18.9659 46.1556 19.1356 46.1016 19.2963C45.5615 20.9395 44.9135 22.4486 44.1575 23.8239C43.4014 25.1813 42.5824 26.3957 41.7003 27.4674C40.8183 28.5211 39.9093 29.4052 38.9732 30.1196C38.0912 30.7804 37.1371 31.3341 36.1111 31.7806C35.085 32.2271 34.095 32.4503 33.141 32.4503C32.5649 32.4503 32.0339 32.3253 31.5479 32.0753C31.0619 31.8252 30.6748 31.4502 30.3868 30.9501C30.0988 30.45 29.9548 29.8249 29.9548 29.0748C29.9548 28.1639 30.1528 27.262 30.5488 26.369C30.9448 25.4581 31.4849 24.6008 32.1689 23.7971C32.8709 22.9934 33.663 22.279 34.545 21.6539C35.4451 21.0109 36.3991 20.493 37.4071 20.1C38.2892 19.7786 39.2432 19.5196 40.2693 19.3231C41.3133 19.1267 42.2674 19.0284 43.1314 19.0284C44.8415 19.0284 46.3176 19.3231 47.5596 19.9125C48.8017 20.5019 49.7557 21.3056 50.4217 22.3236C51.1058 23.3238 51.4478 24.449 51.4478 25.6992C51.4478 26.6636 51.2768 27.5834 50.9348 28.4586C50.6108 29.3337 50.0887 30.1374 49.3687 30.8697C48.6667 31.5841 47.7576 32.2003 46.6416 32.7182C45.5255 33.2362 44.1845 33.6202 42.6184 33.8702L41.4573 32.0753C43.0954 31.9145 44.4995 31.5395 45.6695 30.9501C46.8396 30.3607 47.7486 29.6106 48.3967 28.6997C49.0447 27.7888 49.3687 26.7529 49.3687 25.592C49.3687 24.7169 49.1257 23.9132 48.6397 23.1809C48.1536 22.4486 47.4426 21.8593 46.5066 21.4128C45.5885 20.9484 44.4545 20.7162 43.1044 20.7162C41.9704 20.7162 40.9173 20.8502 39.9453 21.1181C38.9912 21.386 38.1722 21.6717 37.4882 21.9754C36.4801 22.4219 35.5531 23.0202 34.707 23.7703C33.879 24.5204 33.222 25.3331 32.7359 26.2082C32.2499 27.0655 32.0069 27.9049 32.0069 28.7265C32.0069 29.2802 32.1329 29.6999 32.3849 29.9856C32.6549 30.2535 33.0419 30.3875 33.546 30.3875C34.212 30.3875 34.959 30.2 35.7871 29.8249C36.6331 29.4498 37.4972 28.8783 38.3792 28.1103C39.5852 27.0744 40.7013 25.8064 41.7273 24.3061C42.7714 22.8059 43.5994 20.9663 44.2115 18.7873C44.2475 18.6444 44.2835 18.4837 44.3195 18.3051C44.3555 18.1265 44.3915 17.939 44.4275 17.7425C44.4815 17.546 44.5085 17.3764 44.5085 17.2335L46.6416 17.7693Z" fill="#12E5A9"/>
<path d="M41.7814 45.0937C41.6733 45.2365 41.5383 45.433 41.3763 45.683C41.2323 45.9152 41.0793 46.1563 40.9173 46.4064C40.6113 46.8529 40.2423 47.4512 39.8103 48.2013C39.3962 48.9336 38.9462 49.7284 38.4602 50.5856C37.9742 51.4251 37.4972 52.2556 37.0291 53.0771C36.5791 53.8987 36.1831 54.6399 35.8411 55.3007C36.4891 54.7113 37.1551 54.2916 37.8392 54.0416C38.5412 53.7737 39.2162 53.6397 39.8643 53.6397C40.7643 53.6397 41.5023 53.9166 42.0784 54.4702C42.6724 55.0239 42.9874 55.8276 43.0234 56.8814C43.0414 57.4172 43.0504 57.9887 43.0504 58.5959C43.0684 59.1853 43.0774 59.7658 43.0774 60.3373C43.0774 60.891 43.0954 61.391 43.1314 61.8375C43.1854 62.5162 43.4194 63.0074 43.8334 63.311C44.2475 63.5968 44.7425 63.7397 45.3185 63.7397C46.0565 63.7397 46.7226 63.5432 47.3166 63.1503C47.9286 62.7395 48.4597 62.2037 48.9097 61.5429C49.3777 60.882 49.7647 60.1676 50.0707 59.3996C50.3767 58.6316 50.6198 57.8994 50.7998 57.2028L52.5818 58.6495C52.1138 60.0783 51.5378 61.3464 50.8538 62.4537C50.1697 63.5432 49.3417 64.4005 48.3697 65.0256C47.4156 65.6507 46.2816 65.9632 44.9675 65.9632C44.0135 65.9632 43.2484 65.7846 42.6724 65.4274C42.1144 65.0881 41.7093 64.6595 41.4573 64.1415C41.2233 63.6236 41.0883 63.0967 41.0523 62.5609C41.0343 62.0429 41.0163 61.4803 40.9983 60.8731C40.9983 60.2659 40.9983 59.6675 40.9983 59.0782C40.9983 58.4888 40.9803 57.953 40.9443 57.4707C40.9083 56.8814 40.7193 56.4259 40.3773 56.1044C40.0533 55.7651 39.5853 55.5954 38.9732 55.5954C38.2532 55.5954 37.5512 55.8097 36.8671 56.2384C36.2011 56.6492 35.5891 57.185 35.031 57.8458C34.491 58.5066 34.05 59.1942 33.708 59.9086C33.51 60.3016 33.285 60.7749 33.0329 61.3285C32.7989 61.8822 32.5739 62.4537 32.3579 63.0431C32.1419 63.6325 31.9439 64.1862 31.7639 64.7041C31.6019 65.222 31.4759 65.6507 31.3859 65.99L29.0638 65.1863C29.3878 64.2755 29.8108 63.2396 30.3328 62.0787C30.8548 60.9177 31.4219 59.7033 32.0339 58.4352C32.6459 57.1493 33.276 55.8812 33.924 54.631C34.572 53.3629 35.184 52.1752 35.7601 51.0679C36.3541 49.9427 36.8851 48.9604 37.3531 48.1209C37.8212 47.2637 38.1722 46.6207 38.4062 46.192C38.5682 45.8706 38.7302 45.5491 38.8922 45.2276C39.0722 44.8883 39.2432 44.5221 39.4052 44.1292L41.7814 45.0937Z" fill="#12E5A9"/>
<path d="M31.8449 88.0618C33.735 88.2762 35.5351 88.4012 37.2451 88.4369C38.9732 88.4726 40.5303 88.428 41.9164 88.303C43.0144 88.1958 44.1035 88.035 45.1835 87.8207C46.2816 87.5885 47.3166 87.3206 48.2887 87.017L48.5857 88.9459C47.7036 89.196 46.7136 89.4281 45.6155 89.6425C44.5355 89.8568 43.4554 90.0175 42.3754 90.1247C41.0073 90.2497 39.4142 90.3122 37.5962 90.3122C35.7961 90.2944 33.924 90.1961 31.9799 90.0175L31.8449 88.0618ZM31.3319 93.5538C32.8619 93.7146 34.374 93.8217 35.8681 93.8753C37.3621 93.911 38.7752 93.9021 40.1073 93.8485C41.4393 93.795 42.6274 93.7057 43.6714 93.5806C44.9675 93.4377 46.1466 93.2502 47.2086 93.018C48.2706 92.7859 49.1617 92.5537 49.8817 92.3215L50.2057 94.3308C49.4677 94.5272 48.6037 94.7237 47.6136 94.9201C46.6236 95.0987 45.5615 95.2595 44.4275 95.4024C43.3114 95.5274 42.0424 95.6256 40.6203 95.6971C39.1982 95.7506 37.6952 95.7685 36.1111 95.7506C34.545 95.7149 32.9879 95.6524 31.4399 95.5631L31.3319 93.5538ZM40.5663 87.7136C40.4583 87.3028 40.3323 86.9009 40.1883 86.508C40.0623 86.0972 39.9363 85.7043 39.8103 85.3292L42.1054 85.0345C42.1954 85.7847 42.3394 86.5705 42.5374 87.3921C42.7354 88.1958 42.9514 88.9906 43.1854 89.7764C43.4194 90.5444 43.6444 91.2409 43.8604 91.8661C44.1125 92.5626 44.4095 93.3038 44.7515 94.0896C45.0935 94.8755 45.4715 95.6524 45.8855 96.4204C46.2996 97.1884 46.7406 97.9206 47.2086 98.6172C47.3526 98.8137 47.5056 99.0101 47.6676 99.2066C47.8476 99.3852 48.0276 99.5727 48.2076 99.7692L47.1006 101.403C46.5966 101.261 46.0025 101.144 45.3185 101.055C44.6345 100.948 43.9324 100.859 43.2124 100.787C42.4924 100.698 41.8174 100.618 41.1873 100.546L41.3763 98.9119C42.0964 98.9833 42.8434 99.0637 43.6174 99.153C44.3915 99.2423 44.9945 99.3137 45.4265 99.3673C44.6705 98.2064 44.0045 97.0098 43.4284 95.7774C42.8704 94.5451 42.3934 93.3842 41.9974 92.2947C41.7813 91.6875 41.5833 91.1249 41.4033 90.6069C41.2413 90.0711 41.0883 89.5621 40.9443 89.0799C40.8183 88.5976 40.6923 88.1422 40.5663 87.7136ZM35.247 99.3137C34.923 99.7781 34.653 100.251 34.437 100.734C34.221 101.216 34.113 101.752 34.113 102.341C34.113 103.448 34.617 104.279 35.6251 104.833C36.6511 105.386 38.2262 105.663 40.3503 105.663C41.6103 105.663 42.7534 105.618 43.7794 105.529C44.8055 105.44 45.8045 105.297 46.7766 105.1L46.6956 107.244C45.7595 107.387 44.7605 107.494 43.6984 107.565C42.6364 107.654 41.5293 107.699 40.3773 107.699C38.6132 107.699 37.1101 107.52 35.8681 107.163C34.644 106.806 33.708 106.261 33.0599 105.529C32.4299 104.797 32.1059 103.859 32.0879 102.716C32.0699 101.948 32.1599 101.269 32.3579 100.68C32.5739 100.073 32.8349 99.4745 33.141 98.8851L35.247 99.3137Z" fill="#12E5A9"/>
</svg>
