<svg width="643" height="648" viewBox="0 0 643 648" fill="none" xmlns="http://www.w3.org/2000/svg">
<path d="M643 324C643 502.94 499.06 648 321.5 648C143.94 648 0 502.94 0 324C0 145.06 143.94 0 321.5 0C499.06 0 643 145.06 643 324Z" fill="#302F58"/>
<path d="M363.184 118.871H492.804V134.489H363.184V118.871ZM357.355 174.583H497V190.201H357.355V174.583ZM385.098 247.312H470.19V261.299H385.098V247.312ZM385.564 285.309H471.123V300.227H385.564V285.309ZM418.202 97.658H435.454V126.796H418.202V97.658ZM383.233 139.151L398.386 136.121C401.028 141.404 403.515 147.31 405.846 153.837C408.178 160.208 409.732 165.725 410.509 170.387L394.656 173.884C393.879 169.222 392.402 163.627 390.227 157.1C388.051 150.573 385.719 144.59 383.233 139.151ZM456.202 135.654L473.454 139.384C471.123 145.445 468.636 151.661 465.994 158.033C463.507 164.404 461.098 169.766 458.767 174.117L444.313 170.853C445.711 167.59 447.11 163.938 448.509 159.897C450.063 155.701 451.54 151.506 452.938 147.31C454.337 142.958 455.425 139.073 456.202 135.654ZM375.773 209.549H481.147V309.785H464.362V224.235H392.092V310.251H375.773V209.549ZM297.208 110.945H352.926V264.329H297.208V248.478H336.84V127.029H297.208V110.945ZM298.14 179.012H345.932V194.863H298.14V179.012ZM289.048 110.945H305.134V283.444H289.048V110.945Z" fill="white"/>
<path d="M393.957 467.153H474.62V483.703H393.957V467.153ZM386.263 467.153H403.748V562.027C403.748 566.689 404.758 569.72 406.779 571.118C408.799 572.517 412.996 573.216 419.368 573.216C420.767 573.216 423.486 573.216 427.527 573.216C431.568 573.216 435.92 573.216 440.583 573.216C445.401 573.216 449.908 573.216 454.104 573.216C458.456 573.216 461.642 573.216 463.662 573.216C467.859 573.216 470.967 572.284 472.988 570.419C475.164 568.399 476.64 564.669 477.417 559.23C478.35 553.635 479.049 545.399 479.515 534.521C480.914 535.453 482.546 536.463 484.411 537.551C486.431 538.483 488.452 539.338 490.472 540.115C492.493 540.892 494.358 541.436 496.067 541.747C495.29 554.179 493.892 563.892 491.871 570.885C490.006 577.878 486.975 582.774 482.779 585.571C478.583 588.524 472.521 590 464.595 590C463.507 590 461.331 590 458.067 590C454.959 590 451.307 590 447.11 590C443.069 590 439.028 590 434.987 590C430.947 590 427.294 590 424.03 590C420.922 590 418.902 590 417.969 590C409.887 590 403.515 589.223 398.852 587.669C394.19 586.115 390.926 583.318 389.061 579.277C387.196 575.237 386.263 569.487 386.263 562.027V467.153ZM383.699 390.927H483.478V496.524H465.994V407.711H383.699V390.927ZM291.38 448.504H364.116V462.258H291.38V448.504ZM292.545 386.032H365.049V400.018H292.545V386.032ZM291.38 479.508H364.116V493.494H291.38V479.508ZM280.189 416.569H372.975V431.255H280.189V416.569ZM299.539 510.977H363.417V579.044H299.539V564.591H347.797V525.663H299.539V510.977ZM290.913 510.977H306.533V589.767H290.913V510.977Z" fill="white"/>
<path d="M199.713 57.2712C199.351 58.085 199.035 59.0796 198.764 60.255C198.583 61.34 198.357 62.3798 198.085 63.3744C197.362 67.0815 196.639 71.7832 195.915 77.4795C195.192 83.1757 194.604 89.2789 194.152 95.7889C193.7 102.209 193.474 108.538 193.474 114.776C193.474 120.563 193.835 126.214 194.559 131.73C195.373 137.245 196.367 142.535 197.543 147.598C198.809 152.571 200.12 157.182 201.476 161.432L191.71 164.415C190.354 160.347 189.088 155.645 187.912 150.31C186.737 144.885 185.787 139.234 185.064 133.357C184.341 127.39 183.979 121.558 183.979 115.861C183.979 111.16 184.115 106.368 184.386 101.485C184.748 96.6027 185.154 91.8558 185.607 87.2445C186.059 82.5428 186.466 78.1576 186.827 74.0888C187.279 70.0201 187.686 66.4938 188.048 63.51C188.139 62.3346 188.229 61.1592 188.319 59.9838C188.41 58.8083 188.41 57.8138 188.319 57L199.713 57.2712ZM177.74 74.0888C185.697 74.0888 193.564 73.8628 201.341 73.4107C209.117 72.9586 216.578 72.2805 223.721 71.3763C230.955 70.4721 237.737 69.2967 244.067 67.85L244.203 77.8863C239.32 78.7001 234.03 79.4686 228.333 80.192C222.726 80.8249 216.984 81.4126 211.107 81.9551C205.229 82.4072 199.442 82.7689 193.745 83.0401C188.048 83.3114 182.668 83.447 177.604 83.447C175.705 83.447 173.399 83.4018 170.686 83.3114C167.974 83.1305 165.261 82.9949 162.548 82.9045C159.835 82.7236 157.529 82.588 155.63 82.4976L155.359 72.3257C156.987 72.5969 159.202 72.8682 162.005 73.1394C164.809 73.4107 167.657 73.6367 170.551 73.8176C173.444 73.9984 175.841 74.0888 177.74 74.0888ZM234.301 89.957C234.03 90.4995 233.713 91.2681 233.352 92.2626C233.08 93.1668 232.764 94.1162 232.402 95.1108C232.131 96.015 231.86 96.8739 231.588 97.6877C228.875 106.006 225.62 113.646 221.822 120.608C218.024 127.48 213.91 133.628 209.479 139.053C205.048 144.388 200.482 148.864 195.78 152.48C191.349 155.826 186.556 158.629 181.402 160.889C176.248 163.15 171.274 164.28 166.482 164.28C163.588 164.28 160.92 163.647 158.479 162.381C156.037 161.115 154.093 159.216 152.646 156.685C151.2 154.153 150.476 150.989 150.476 147.191C150.476 142.58 151.471 138.014 153.46 133.493C155.45 128.882 158.162 124.542 161.598 120.473C165.125 116.404 169.104 112.787 173.535 109.623C178.056 106.368 182.849 103.746 187.912 101.756C192.343 100.129 197.136 98.8179 202.29 97.8233C207.535 96.8287 212.327 96.3314 216.668 96.3314C225.258 96.3314 232.673 97.8233 238.913 100.807C245.152 103.791 249.945 107.86 253.29 113.013C256.727 118.077 258.445 123.773 258.445 130.102C258.445 134.985 257.586 139.641 255.868 144.072C254.24 148.502 251.618 152.571 248.001 156.278C244.474 159.895 239.907 163.014 234.301 165.636C228.695 168.258 221.958 170.202 214.091 171.468L208.258 162.381C216.487 161.567 223.54 159.669 229.418 156.685C235.296 153.701 239.862 149.904 243.118 145.292C246.373 140.681 248.001 135.437 248.001 129.56C248.001 125.129 246.78 121.06 244.338 117.353C241.897 113.646 238.325 110.663 233.623 108.402C229.011 106.051 223.314 104.876 216.532 104.876C210.835 104.876 205.546 105.554 200.663 106.91C195.87 108.266 191.756 109.713 188.319 111.25C183.256 113.511 178.599 116.54 174.349 120.337C170.189 124.135 166.888 128.249 164.447 132.679C162.005 137.019 160.785 141.269 160.785 145.428C160.785 148.231 161.418 150.356 162.684 151.802C164.04 153.159 165.984 153.837 168.516 153.837C171.862 153.837 175.615 152.887 179.774 150.989C184.024 149.09 188.365 146.196 192.795 142.308C198.854 137.064 204.46 130.645 209.615 123.05C214.859 115.455 219.019 106.142 222.094 95.1108C222.274 94.3874 222.455 93.5737 222.636 92.6695C222.817 91.7654 222.998 90.816 223.179 89.8214C223.45 88.8268 223.586 87.9678 223.586 87.2445L234.301 89.957Z" fill="#12E5A9"/>
<path d="M209.886 228.287C209.343 229.01 208.665 230.005 207.851 231.27C207.128 232.446 206.359 233.666 205.546 234.932C204.008 237.193 202.155 240.222 199.984 244.019C197.905 247.726 195.644 251.75 193.202 256.09C190.761 260.339 188.365 264.544 186.014 268.703C183.753 272.862 181.764 276.615 180.045 279.96C183.301 276.976 186.647 274.851 190.083 273.586C193.609 272.229 197 271.551 200.256 271.551C204.777 271.551 208.484 272.953 211.378 275.756C214.362 278.558 215.945 282.627 216.125 287.962C216.216 290.674 216.261 293.568 216.261 296.642C216.351 299.626 216.397 302.564 216.397 305.458C216.397 308.261 216.487 310.792 216.668 313.053C216.939 316.488 218.115 318.975 220.195 320.512C222.274 321.959 224.761 322.682 227.655 322.682C231.362 322.682 234.708 321.687 237.692 319.698C240.766 317.619 243.434 314.906 245.695 311.561C248.046 308.215 249.99 304.599 251.527 300.711C253.064 296.823 254.285 293.116 255.189 289.589L264.142 296.913C261.791 304.147 258.897 310.566 255.461 316.172C252.025 321.687 247.865 326.027 242.982 329.192C238.189 332.357 232.493 333.939 225.891 333.939C221.099 333.939 217.256 333.035 214.362 331.226C211.559 329.509 209.524 327.338 208.258 324.716C207.083 322.094 206.405 319.427 206.224 316.714C206.133 314.092 206.043 311.244 205.952 308.17C205.952 305.096 205.952 302.067 205.952 299.083C205.952 296.099 205.862 293.387 205.681 290.946C205.5 287.962 204.551 285.656 202.833 284.029C201.205 282.311 198.854 281.452 195.78 281.452C192.163 281.452 188.636 282.537 185.2 284.707C181.854 286.786 178.779 289.499 175.976 292.844C173.263 296.19 171.048 299.671 169.33 303.288C168.335 305.277 167.205 307.673 165.939 310.476C164.763 313.279 163.633 316.172 162.548 319.156C161.463 322.139 160.468 324.942 159.564 327.565C158.75 330.187 158.117 332.357 157.665 334.075L146 330.006C147.628 325.395 149.753 320.15 152.375 314.273C154.997 308.396 157.846 302.248 160.92 295.828C163.995 289.318 167.16 282.898 170.415 276.569C173.67 270.15 176.745 264.137 179.638 258.531C182.623 252.835 185.29 247.862 187.641 243.612C189.992 239.272 191.756 236.017 192.931 233.847C193.745 232.22 194.559 230.592 195.373 228.965C196.277 227.247 197.136 225.393 197.95 223.404L209.886 228.287Z" fill="#12E5A9"/>
<path d="M159.971 445.813C169.466 446.898 178.508 447.531 187.099 447.712C195.78 447.893 203.601 447.667 210.564 447.034C216.08 446.491 221.551 445.677 226.977 444.592C232.493 443.417 237.692 442.061 242.575 440.524L244.067 450.289C239.636 451.555 234.663 452.73 229.147 453.815C223.721 454.9 218.296 455.714 212.87 456.256C205.998 456.889 197.995 457.206 188.862 457.206C179.819 457.115 170.415 456.618 160.649 455.714L159.971 445.813ZM157.394 473.616C165.08 474.43 172.676 474.973 180.181 475.244C187.686 475.425 194.785 475.379 201.476 475.108C208.168 474.837 214.136 474.385 219.381 473.752C225.891 473.029 231.814 472.079 237.149 470.904C242.485 469.728 246.961 468.553 250.578 467.378L252.205 477.549C248.498 478.544 244.157 479.539 239.184 480.533C234.211 481.437 228.875 482.251 223.179 482.974C217.572 483.607 211.197 484.105 204.054 484.466C196.91 484.738 189.359 484.828 181.402 484.738C173.535 484.557 165.713 484.24 157.936 483.788L157.394 473.616ZM203.782 444.05C203.24 441.97 202.607 439.936 201.883 437.947C201.25 435.867 200.617 433.878 199.984 431.979L211.514 430.487C211.966 434.285 212.689 438.263 213.684 442.422C214.679 446.491 215.764 450.515 216.939 454.493C218.115 458.381 219.245 461.907 220.33 465.072C221.596 468.598 223.088 472.35 224.806 476.329C226.524 480.307 228.423 484.24 230.503 488.128C232.583 492.016 234.798 495.723 237.149 499.25C237.873 500.244 238.641 501.239 239.455 502.233C240.36 503.137 241.264 504.087 242.168 505.081L236.607 513.355C234.075 512.631 231.091 512.044 227.655 511.591C224.219 511.049 220.692 510.597 217.075 510.235C213.458 509.783 210.067 509.376 206.902 509.015L207.851 500.741C211.468 501.103 215.221 501.51 219.109 501.962C222.998 502.414 226.027 502.776 228.197 503.047C224.399 497.17 221.054 491.112 218.16 484.873C215.357 478.634 212.96 472.757 210.971 467.242C209.886 464.168 208.891 461.32 207.987 458.697C207.173 455.985 206.405 453.408 205.681 450.967C205.048 448.526 204.415 446.22 203.782 444.05ZM177.061 502.776C175.434 505.127 174.077 507.523 172.992 509.964C171.907 512.405 171.365 515.118 171.365 518.101C171.365 523.707 173.896 527.912 178.96 530.715C184.115 533.518 192.027 534.919 202.697 534.919C209.027 534.919 214.769 534.693 219.923 534.241C225.078 533.789 230.096 533.065 234.979 532.071L234.572 542.921C229.87 543.644 224.852 544.187 219.516 544.548C214.181 545.001 208.62 545.227 202.833 545.227C193.971 545.227 186.42 544.322 180.181 542.514C174.032 540.706 169.33 537.948 166.075 534.241C162.91 530.534 161.282 525.787 161.192 520C161.101 516.112 161.553 512.676 162.548 509.693C163.633 506.619 164.944 503.59 166.482 500.606L177.061 502.776Z" fill="#12E5A9"/>
</svg>
